<svg width="30" height="42" xmlns="http://www.w3.org/2000/svg">

 <g>
  <title>background</title>
  <rect fill="none" id="canvas_background" height="380" width="500" y="-1" x="-1"/>
 </g>
 <g>
  <title>Layer 1</title>
  <path id="svg_1" stroke-width="1.0099" stroke="#efa0ef" fill="#FCFFFE" d="m33.495,29.174c0,9.1099 -7.385,16.495 -16.495,16.495c-4.5284,0 -8.65244,-2.1795 -11.65388,-5.3543c-3.00518,-3.1788 -4.84117,-7.3096 -4.84117,-11.1407c0,-3.2407 1.41532,-6.0877 3.39707,-9.033c0.75355,-1.12 1.579,-2.2403 2.43251,-3.3986c0.26972,-0.3661 0.54224,-0.736 0.81618,-1.1108c1.13616,-1.5547 2.28837,-3.1844 3.32679,-4.9398c2.3858,-4.03307 3.2123,-6.70299 3.2123,-9.90726c0,-0.18065 0.0309,-0.25404 0.0424,-0.27528c0.0142,-0.00345 0.0442,-0.00708 0.0996,-0.00183c0.1303,0.01233 0.3241,0.06983 0.5832,0.19211c0.2533,0.1195 0.5413,0.28742 0.8535,0.49348c1.2576,0.83001 2.759,2.17785 3.6868,3.04604c11.5125,10.77244 14.5397,17.63344 14.5397,24.93494zm-19.7734,-28.66069c-0.0002,-0.0002 0.0013,-0.00123 0.0052,-0.00251c-0.003,0.00206 -0.005,0.00271 -0.0052,0.00251z"/>
  <path id="svg_2" stroke-width="1.0099" stroke="#FCFFFE" fill="#FCFFFE" d="m30.552,32.3808c0,7.3366 -6.1627,13.3138 -13.802,13.3138c-3.7911,0 -7.24349,-1.7624 -9.75569,-4.3291c-2.51679,-2.5713 -4.04631,-5.9049 -4.04631,-8.9847c0,-2.6103 1.12073,-5.0033 2.74988,-7.4348c0.81355,-1.2142 1.74384,-2.4237 2.71073,-3.6678c0.08226,-0.1058 0.16478,-0.2119 0.24751,-0.3182c0.8863,-1.1394 1.79598,-2.3088 2.65138,-3.5205c2.9771,-4.2171 3.812,-5.7123 4.6234,-8.74265c0.018,-0.06718 0.0358,-0.10731 0.048,-0.12965c0.0413,0.00771 0.1152,0.03136 0.227,0.09237c0.1275,0.0696 0.2783,0.17331 0.4515,0.31174c0.5562,0.44438 1.2111,1.134 1.898,1.85739c0.1921,0.2023 0.3867,0.4072 0.5824,0.6102c9.062,9.3997 11.4142,15.0337 11.4142,20.9419z"/>
  <path id="svg_3" stroke-width="1.0099" stroke="#210f21" fill="#DC0000" d="m14.1087,40.802c0.5719,1.2654 1.3542,2.3394 2.1025,3.1465c-2.5113,-0.3656 -4.7787,-1.7019 -6.50448,-3.5292c-2.04066,-2.1606 -3.2802,-4.9617 -3.2802,-7.5467c0,-2.1886 0.90647,-4.1983 2.23184,-6.2482c0.66195,-1.0238 1.41924,-2.0442 2.20804,-3.096c0.0671,-0.0895 0.1344,-0.1792 0.202,-0.2692c0.7227,-0.9628 1.4658,-1.9528 2.1646,-2.9786c2.3614,-3.4663 2.8528,-4.8298 3.6726,-7.1042c0.0311,-0.0863 0.0627,-0.174 0.0949,-0.2631c0.0042,-0.0116 0.0082,-0.0216 0.0118,-0.03c0.0937,0.0277 0.2668,0.1182 0.5256,0.3276c0.5604,0.4536 1.233,1.2176 1.8781,1.9504l0.0408,0.0462c7.165,8.1373 9.2998,12.7016 9.2998,17.6651c0,4.6867 -2.8823,8.7003 -6.9695,10.3604c4.4187,-8.6831 1.8015,-14.9977 -0.2947,-17.2052l-1.0477,-1.1034l0.1801,1.5109c0.3445,2.8891 0.2634,4.9091 -0.0695,6.2812c-0.3315,1.3667 -0.8964,2.0346 -1.4849,2.3327c-0.5996,0.3037 -1.3453,0.2862 -2.1611,0.0218c-0.8118,-0.2631 -1.6317,-0.7527 -2.3148,-1.2929l-0.5418,-0.4285l-0.2438,0.6463c-0.9556,2.5322 -0.5622,4.899 0.2998,6.8061z"/>
 </g>
</svg>