<svg width="34" height="47" viewBox="0 0 34 47" fill="none" xmlns="http://www.w3.org/2000/svg">
<path d="M33.495 29.174C33.495 38.2839 26.11 45.669 17 45.669C12.4716 45.669 8.34756 43.4895 5.34612 40.3147C2.34094 37.1359 0.504951 33.0051 0.504951 29.174C0.504954 25.9333 1.92027 23.0863 3.90202 20.141C4.65557 19.021 5.48102 17.9007 6.33453 16.7424C6.60425 16.3763 6.87677 16.0064 7.15071 15.6316C8.28687 14.0769 9.43908 12.4472 10.4775 10.6918C12.8633 6.65873 13.6898 3.98881 13.6898 0.78454C13.6898 0.603893 13.7207 0.530503 13.7322 0.509265C13.7464 0.50581 13.7764 0.502182 13.8318 0.507426C13.9621 0.519763 14.1559 0.577259 14.415 0.699542C14.6683 0.819038 14.9563 0.986962 15.2685 1.19302C16.5261 2.02303 18.0275 3.37087 18.9553 4.23906C30.4678 15.0115 33.495 21.8725 33.495 29.174ZM13.7216 0.51331C13.7214 0.513114 13.7229 0.51208 13.7268 0.510796C13.7238 0.512864 13.7218 0.513506 13.7216 0.51331Z" fill="#00B488" stroke="#FCFFFE" stroke-width="1.0099"/>
<path d="M30.802 32.1308C30.802 39.4674 24.6393 45.4446 17 45.4446C13.2089 45.4446 9.75651 43.6822 7.24431 41.1155C4.72752 38.5442 3.198 35.2106 3.198 32.1308C3.198 29.5205 4.31873 27.1275 5.94788 24.696C6.76143 23.4818 7.69172 22.2723 8.65861 21.0282C8.74087 20.9224 8.82339 20.8163 8.90612 20.71C9.79242 19.5706 10.7021 18.4012 11.5575 17.1895C14.5346 12.9724 15.3695 11.4772 16.1809 8.44685C16.1989 8.37967 16.2167 8.33954 16.2289 8.3172C16.2702 8.32491 16.3441 8.34856 16.4559 8.40957C16.5834 8.47917 16.7342 8.58288 16.9074 8.72131C17.4636 9.16569 18.1185 9.85531 18.8054 10.5787C18.9975 10.781 19.1921 10.9859 19.3878 11.1889C28.4498 20.5886 30.802 26.2226 30.802 32.1308Z" fill="#FCFFFE" stroke="#FCFFFE" stroke-width="1.0099"/>
<path d="M14.3587 40.802C14.9306 42.0674 15.7129 43.1414 16.4612 43.9485C13.9499 43.5829 11.6825 42.2466 9.95672 40.4193C7.91606 38.2587 6.67652 35.4576 6.67652 32.8726C6.67652 30.684 7.58299 28.6743 8.90836 26.6244C9.57031 25.6006 10.3276 24.5802 11.1164 23.5284C11.1835 23.4389 11.2508 23.3492 11.3184 23.2592C12.0411 22.2964 12.7842 21.3064 13.483 20.2806C15.8444 16.8143 16.3358 15.4508 17.1556 13.1764C17.1867 13.0901 17.2183 13.0024 17.2505 12.9133C17.2547 12.9017 17.2587 12.8917 17.2623 12.8833C17.356 12.911 17.5291 13.0015 17.7879 13.2109C18.3483 13.6645 19.0209 14.4285 19.666 15.1613L19.7068 15.2075C26.8718 23.3448 29.0066 27.9091 29.0066 32.8726C29.0066 37.5593 26.1243 41.5729 22.0371 43.233C26.4558 34.5499 23.8386 28.2353 21.7424 26.0278L20.6947 24.9244L20.8748 26.4353C21.2193 29.3244 21.1382 31.3444 20.8053 32.7165C20.4738 34.0832 19.9089 34.7511 19.3204 35.0492C18.7208 35.3529 17.9751 35.3354 17.1593 35.071C16.3475 34.8079 15.5276 34.3183 14.8445 33.7781L14.3027 33.3496L14.0589 33.9959C13.1033 36.5281 13.4967 38.8949 14.3587 40.802Z" fill="#DC0000" stroke="#DC0000" stroke-width="1.0099"/>
</svg>
